<?xml version="1.0" encoding="utf-8"?>
<!-- Generator: Adobe Illustrator 19.0.1, SVG Export Plug-In . SVG Version: 6.00 Build 0)  -->
<svg version="1.1" id="Layer_1" xmlns="http://www.w3.org/2000/svg" xmlns:xlink="http://www.w3.org/1999/xlink" x="0px" y="0px"
	 viewBox="-239 378 133 37" style="enable-background:new -239 378 133 37;" xml:space="preserve">
<style type="text/css">
	.st0{fill:#3A5897;}
	.st1{enable-background:new    ;}
	.st2{fill:#FFFFFF;}
</style>
<g id="Layer_1_1_">
	<path class="st0" d="M-233,378h121c3.3,0,6,2.7,6,6v25c0,3.3-2.7,6-6,6h-121c-3.3,0-6-2.7-6-6v-25C-239,380.7-236.3,378-233,378z"
		/>
</g>
<g class="st1">
	<path class="st2" d="M-181.9,406c-0.7,0-1.5-0.1-2.2-0.2c-0.7-0.1-1.4-0.3-2.1-0.6c-0.7-0.2-1.3-0.5-1.9-0.9
		c-0.6-0.3-1.1-0.7-1.6-1.1l3.8-4.1c0.4,0.5,1,0.9,1.7,1.2c0.7,0.4,1.5,0.5,2.2,0.5c0.3,0,0.7-0.1,0.9-0.2c0.3-0.1,0.4-0.3,0.4-0.7
		c0-0.2,0-0.3-0.1-0.4c-0.1-0.1-0.3-0.2-0.5-0.4c-0.2-0.1-0.6-0.3-1-0.4c-0.4-0.2-1-0.3-1.6-0.5s-1.2-0.5-1.8-0.7
		c-0.6-0.3-1.1-0.6-1.5-1.1c-0.4-0.4-0.8-0.9-1.1-1.5c-0.3-0.6-0.4-1.3-0.4-2.1c0-1.1,0.2-2.1,0.7-2.9c0.5-0.8,1.1-1.5,1.8-2
		c0.7-0.5,1.6-0.9,2.5-1.1c0.9-0.2,1.8-0.3,2.7-0.3c1.2,0,2.4,0.2,3.7,0.7c1.3,0.5,2.4,1.1,3.3,2l-3.8,3.9c-0.4-0.5-0.9-0.9-1.5-1.2
		s-1.2-0.4-1.6-0.4c-0.5,0-0.8,0.1-1.1,0.2c-0.3,0.1-0.4,0.3-0.4,0.6s0.1,0.5,0.4,0.6s0.7,0.3,1.4,0.5c0.7,0.2,1.4,0.5,2.1,0.7
		c0.7,0.3,1.4,0.6,2,1.1c0.6,0.4,1.1,1,1.5,1.6s0.6,1.4,0.6,2.4c0,1.1-0.2,2.1-0.7,2.9c-0.4,0.8-1,1.5-1.7,2.1
		c-0.7,0.5-1.5,1-2.4,1.2S-181,406-181.9,406z"/>
	<path class="st2" d="M-162.5,391.5c1,0,1.7,0.2,2.4,0.5s1.1,0.8,1.5,1.3s0.6,1.2,0.8,1.8c0.1,0.7,0.2,1.4,0.2,2v8.3h-6v-7.3
		c0-0.7-0.1-1.2-0.3-1.5c-0.2-0.3-0.5-0.4-1-0.4c-0.3,0-0.7,0.2-0.9,0.5c-0.3,0.3-0.4,0.8-0.4,1.4v7.3h-6v-19.7h6v7.5h0.1
		c0.3-0.5,0.8-0.9,1.5-1.3C-164.1,391.7-163.3,391.5-162.5,391.5z"/>
	<path class="st2" d="M-147.7,396.8c0-0.4-0.1-0.7-0.4-0.9s-0.7-0.3-1.1-0.3c-0.6,0-1.1,0.1-1.6,0.4c-0.5,0.2-0.9,0.5-1.3,0.8l-3-3
		c0.8-0.8,1.8-1.4,3-1.8s2.3-0.7,3.5-0.7c1.3,0,2.4,0.2,3.2,0.5c0.8,0.4,1.5,0.9,2,1.5s0.8,1.4,1,2.2s0.3,1.8,0.3,2.7v7.2h-5.4v-1.1
		h-0.1c-0.3,0.5-0.8,0.9-1.5,1.1c-0.6,0.2-1.3,0.3-1.9,0.3c-0.5,0-1.1-0.1-1.7-0.2c-0.6-0.2-1.1-0.4-1.5-0.8
		c-0.5-0.3-0.8-0.8-1.1-1.4c-0.3-0.6-0.4-1.2-0.4-2.1c0-1,0.2-1.7,0.7-2.3s1.1-1.1,1.9-1.4s1.6-0.6,2.6-0.7
		C-149.5,397-148.6,396.9-147.7,396.8L-147.7,396.8z M-147.6,399.9c-0.9,0-1.6,0.1-2.1,0.3s-0.8,0.5-0.8,1.1c0,0.2,0,0.4,0.1,0.5
		s0.2,0.2,0.3,0.3s0.3,0.2,0.5,0.2s0.3,0.1,0.5,0.1c0.6,0,1-0.2,1.4-0.5s0.5-0.8,0.5-1.4V400L-147.6,399.9L-147.6,399.9z"/>
	<path class="st2" d="M-139.6,391.8h5.8v1.6h0.1c0.3-0.6,0.7-1,1.3-1.4c0.6-0.4,1.3-0.5,2-0.5c0.5,0,0.8,0,1.1,0.1l-0.5,5.1
		c-0.2-0.1-0.4-0.1-0.6-0.1s-0.4,0-0.6,0c-0.8,0-1.4,0.2-1.9,0.7s-0.7,1-0.7,1.7v6.6h-6L-139.6,391.8L-139.6,391.8z"/>
	<path class="st2" d="M-114.2,398.8c0,0.2,0,0.5,0,0.7s0,0.4,0,0.6h-9.2c0,0.2,0.1,0.5,0.2,0.6c0.1,0.2,0.3,0.4,0.5,0.5
		s0.5,0.2,0.7,0.3c0.3,0.1,0.5,0.1,0.8,0.1c0.6,0,1-0.1,1.4-0.3s0.7-0.4,0.8-0.7l4.3,2.2c-0.6,1-1.5,1.8-2.6,2.3
		c-1.2,0.6-2.5,0.9-4,0.9c-1,0-2-0.2-2.9-0.5s-1.8-0.8-2.5-1.4s-1.3-1.4-1.7-2.3c-0.4-0.9-0.6-2-0.6-3.2c0-1.1,0.2-2.1,0.6-3.1
		c0.4-0.9,0.9-1.7,1.6-2.3s1.5-1.1,2.4-1.5c0.9-0.3,1.9-0.5,3-0.5s2.1,0.2,2.9,0.6c0.9,0.4,1.6,0.9,2.3,1.6c0.6,0.7,1.1,1.5,1.5,2.4
		C-114.4,396.7-114.2,397.7-114.2,398.8z M-119.4,396.9c0-0.5-0.2-0.9-0.5-1.2c-0.4-0.3-0.8-0.5-1.4-0.5c-0.7,0-1.2,0.2-1.5,0.5
		c-0.4,0.4-0.6,0.7-0.6,1.1h4V396.9z"/>
</g>
<g id="White_2_">
	<path class="st2" d="M-206.8,384.3h-21.7c-0.7,0-1.3,0.6-1.3,1.3v21.7c0,0.7,0.6,1.3,1.3,1.3h11.7v-9.4h-3.2v-3.7h3.2v-2.7
		c0-3.2,1.9-4.9,4.7-4.9c1.3,0,2.5,0.1,2.8,0.1v3.3h-1.9c-1.5,0-1.8,0.7-1.8,1.8v2.4h3.6l-0.5,3.7h-3.2v9.4h6.2
		c0.7,0,1.3-0.6,1.3-1.3v-21.7C-205.4,384.9-206,384.3-206.8,384.3z"/>
</g>
</svg>
